<svg width="483" height="223" viewBox="0 0 483 223" fill="none" xmlns="http://www.w3.org/2000/svg">
<path d="M470.854 206.727C470.854 215.605 365.468 222.886 235.427 222.886C105.386 222.886 0 215.605 0 206.727C0 197.785 105.386 190.567 235.427 190.567C365.468 190.567 470.854 197.785 470.854 206.727Z" fill="#E9F0F9"/>
<path d="M403.279 185.33C374.409 177.218 362.338 192.42 358.059 185.202C357.846 184.861 357.675 184.5 357.548 184.116C355.568 177.857 370.194 173.705 379.264 146.56C385.012 129.379 394.784 97.3162 408.133 98.4658C419.566 99.4878 407.175 124.142 423.143 126.569C434.703 128.357 426.911 103.512 437.961 102.937C450.224 102.234 442.943 122.992 453.992 120.373C464.978 117.691 474.048 100.382 480.626 108.174C480.711 108.302 480.797 108.43 480.882 108.557C486.758 116.222 474.814 125.483 466.703 131.168C458.463 136.916 455.589 138.129 457.569 140.493C459.485 142.856 474.431 145.538 470.471 154.353C466.511 163.103 443.007 153.395 432.212 160.42C421.482 167.51 446.392 170.64 437.769 179.901C432.787 185.202 417.586 189.418 403.279 185.33Z" fill="#D9EAFE"/>
<path style="mix-blend-mode:screen" d="M427.614 175.366L399.064 163.486L427.805 145.666L427.741 145.73L452.779 149.754L430.232 144.197L463.764 123.439L443.517 134.617L441.09 119.096L441.665 135.639L410.752 152.756L404.173 120.118L408.964 153.778L370.13 175.43L372.238 179.007L396.956 164.764L427.614 175.366Z" fill="url(#paint0_linear_111_33)"/>
<path d="M448.354 77.2172C453.911 78.4308 469.432 81.1772 468.41 74.2792C467.388 67.445 453.4 73.3211 448.227 75.7482C447.396 75.4927 443.117 74.3431 435.9 75.2372C441.456 72.6186 454.294 65.7844 449.504 61.058C444.139 55.7567 435.516 71.916 433.664 75.5566C430.918 76.0676 427.788 76.7701 424.339 77.9837C423.572 78.2392 422.785 78.5372 421.976 78.8779C427.085 74.7263 436.73 65.9121 431.301 62.5909C424.978 58.7586 420.315 75.5566 419.229 80.0275C415.142 81.8159 410.479 84.243 405.369 87.6281C409.202 82.7101 417.377 70.9579 410.99 68.914C403.9 66.6786 403.453 84.5623 403.453 88.9055C399.813 91.3965 395.98 94.3346 391.957 97.7197C394.895 92.4823 401.665 79.1972 394.958 78.1114C387.549 76.9618 389.849 94.9094 390.424 99.061C387.4 101.744 384.25 104.724 380.971 108.003C381.929 102.255 383.909 87.0533 377.139 88.3307C369.985 89.7359 377.522 104.937 379.821 109.216C376.5 112.602 373.115 116.306 369.666 120.394C370.496 115.859 373.306 98.1668 366.025 99.5719C358.424 100.977 367.43 118.031 369.091 121.096C366.877 123.694 364.62 126.461 362.321 129.4C362.065 129.783 362.129 130.23 362.448 130.485C362.491 130.528 362.533 130.57 362.576 130.613C362.895 130.741 363.343 130.677 363.534 130.358C365.833 127.462 368.09 124.694 370.304 122.054C373.051 124.801 386.719 138.086 389.785 131.124C392.787 124.29 375.222 121.991 370.815 121.48C374.201 117.456 377.522 113.815 380.779 110.494C383.334 113.113 397.258 126.589 400.324 119.563C403.326 112.729 385.633 110.43 381.29 109.983C384.867 106.278 388.316 103.021 391.637 100.147C394.384 103.213 407.222 116.817 410.607 110.047C413.864 103.532 397.066 100.338 392.34 99.5719C396.555 95.8674 400.579 92.8016 404.347 90.1829C406.775 93.5042 418.144 108.322 422.167 101.935C426.063 95.8036 409.84 90.9494 405.114 89.672C410.607 85.9675 415.525 83.3488 419.868 81.4327C422.487 85.0095 433.6 99.4442 437.624 93.121C441.392 87.1811 426.255 82.3908 421.018 80.9856C422.295 80.4321 423.509 79.9637 424.658 79.5804C428.235 78.303 431.365 77.5366 434.175 77.0895C436.602 80.3469 448.227 95.0371 452.187 88.5862C455.763 82.774 441.584 78.3669 435.9 76.834C443.5 75.876 447.779 77.2172 447.843 77.2811C448.035 77.345 448.227 77.2811 448.354 77.2172Z" fill="#061F6F"/>
<path d="M92.2729 143.007C114.062 139.402 121.67 151.505 125.386 146.568C125.569 146.336 125.723 146.085 125.848 145.814C127.803 141.392 117.432 137.171 112.986 116.567C110.166 103.526 105.604 79.2647 95.7389 79.0276C87.2871 78.8518 94.3654 97.9007 82.4804 98.387C73.8732 98.762 81.5851 81.2038 73.5429 79.8901C64.6226 78.3848 68.2753 94.1687 60.3982 91.3588C52.5731 88.5073 47.3326 75.1037 41.8871 80.2763C41.8144 80.3629 41.7418 80.4495 41.6691 80.5361C36.7482 85.6719 44.7431 93.4167 50.2216 98.2334C55.7886 103.107 57.7945 104.228 56.1541 105.798C54.5605 107.373 43.4029 108.129 45.5895 114.901C47.7812 121.627 65.7717 116.419 73.1056 122.434C80.3876 128.491 61.9001 128.77 67.4637 136.246C70.6822 140.529 81.4694 144.843 92.2729 143.007Z" fill="#D9EAFE"/>
<path style="mix-blend-mode:screen" d="M75.2642 133.747L97.1239 127.357L77.524 111.99L77.5656 112.042L58.9123 112.964L75.866 110.719L52.9969 92.8134L66.9151 102.632L69.946 91.4663L68.1884 103.53L89.4348 118.558L96.888 95.1977L90.6614 119.451L117.339 138.439L115.507 140.887L98.5636 128.463L75.2642 133.747Z" fill="url(#paint1_linear_111_33)"/>
<path d="M41.9688 141.354C37.8764 142.248 26.4458 144.27 27.1984 139.19C27.9511 134.157 38.2527 138.484 42.0629 140.272C42.6744 140.084 45.826 139.237 51.1415 139.896C47.049 137.967 37.5941 132.934 41.1221 129.453C45.0734 125.549 51.4237 137.45 52.7879 140.131C54.8106 140.507 57.1155 141.025 59.6556 141.918C60.2201 142.107 60.8003 142.326 61.3961 142.577C57.6329 139.519 50.53 133.028 54.5283 130.582C59.1852 127.759 62.6191 140.131 63.4188 143.424C66.4293 144.741 69.8632 146.528 73.6263 149.021C70.804 145.399 64.7829 136.744 69.4868 135.239C74.7082 133.592 75.0375 146.763 75.0375 149.962C77.7188 151.797 80.5411 153.96 83.5046 156.454C81.3408 152.596 76.3546 142.812 81.2937 142.012C86.7503 141.166 85.0569 154.384 84.6335 157.441C86.8601 159.417 89.1807 161.612 91.5954 164.027C90.8898 159.793 89.4315 148.598 94.4177 149.539C99.6861 150.574 94.1355 161.769 92.4421 164.921C94.8881 167.414 97.3812 170.142 99.9213 173.153C99.3098 169.813 97.2401 156.783 102.603 157.818C108.2 158.853 101.568 171.412 100.345 173.67C101.975 175.583 103.637 177.621 105.331 179.785C105.519 180.067 105.472 180.397 105.237 180.585C105.205 180.616 105.174 180.647 105.143 180.679C104.908 180.773 104.578 180.726 104.437 180.491C102.744 178.358 101.082 176.32 99.4509 174.376C97.4282 176.398 87.3618 186.182 85.1039 181.055C82.8931 176.022 95.8289 174.328 99.0746 173.952C96.5815 170.989 94.1355 168.307 91.7365 165.861C89.8549 167.79 79.6003 177.715 77.3424 172.541C75.1316 167.508 88.1615 165.814 91.3602 165.485C88.726 162.757 86.1858 160.358 83.7398 158.241C81.7171 160.499 72.2622 170.518 69.7691 165.532C67.3701 160.734 79.7414 158.382 83.2223 157.818C80.1177 155.089 77.1543 152.831 74.3789 150.903C72.5914 153.349 64.2184 164.262 61.2549 159.558C58.3855 155.042 70.3336 151.467 73.8145 150.527C69.7691 147.798 66.1471 145.87 62.9484 144.458C61.0198 147.093 52.8349 157.724 49.8714 153.067C47.0961 148.692 58.2444 145.164 62.1017 144.129C61.1609 143.722 60.2671 143.377 59.4204 143.094C56.7862 142.154 54.4813 141.589 52.4115 141.26C50.6241 143.659 42.0629 154.478 39.1464 149.727C36.5122 145.446 46.955 142.201 51.1415 141.072C45.5438 140.366 42.3922 141.354 42.3451 141.401C42.204 141.448 42.0629 141.401 41.9688 141.354Z" fill="#061F6F"/>
<path d="M407.023 7.21737V201.448C407.023 205.408 403.765 208.665 399.805 208.665H87.3505C83.3905 208.665 80.1331 205.408 80.1331 201.448V7.21737C80.1331 3.19352 83.3905 0 87.3505 0H399.805C403.765 0 407.023 3.19352 407.023 7.21737Z" fill="white"/>
<path d="M406.89 7.38638V24.6953H80V7.38638C80 3.36253 83.2574 0.169006 87.2174 0.169006H399.672C403.632 0.169006 406.89 3.36253 406.89 7.38638Z" fill="#061F6F"/>
<path d="M345.191 13.1348C345.191 14.9231 343.786 16.3283 341.997 16.3283C340.209 16.3283 338.804 14.9231 338.804 13.1348C338.804 11.3464 340.209 9.94122 341.997 9.94122C343.786 9.94122 345.191 11.3464 345.191 13.1348Z" fill="white"/>
<path d="M384.791 13.1348C384.791 14.9231 383.322 16.3283 381.533 16.3283C379.809 16.3283 378.34 14.9231 378.34 13.1348C378.34 11.3464 379.809 9.94122 381.533 9.94122C383.322 9.94122 384.791 11.3464 384.791 13.1348Z" fill="white"/>
<path d="M364.991 13.1348C364.991 14.9231 363.522 16.3283 361.797 16.3283C360.009 16.3283 358.54 14.9231 358.54 13.1348C358.54 11.3464 360.009 9.94122 361.797 9.94122C363.522 9.94122 364.991 11.3464 364.991 13.1348Z" fill="white"/>
<path fill-rule="evenodd" clip-rule="evenodd" d="M207.291 109.354C207.291 133.459 187.75 153 163.646 153C139.541 153 120 133.459 120 109.354C120 85.25 139.541 65.709 163.646 65.709C187.75 65.709 207.291 85.25 207.291 109.354ZM135.426 133.459L187.196 80.6714C180.568 75.2101 172.339 72.2476 163.646 72.2476C153.725 72.2476 144.419 76.1079 137.401 83.1103C130.399 90.1277 126.539 99.4344 126.539 109.354C126.539 118.287 129.681 126.741 135.426 133.459ZM200.752 109.354C200.752 100.422 197.61 91.9681 191.865 85.25L140.095 138.038C146.708 143.499 154.952 146.461 163.646 146.461C173.566 146.461 182.872 142.601 189.89 135.599C196.892 128.581 200.752 119.26 200.752 109.354Z" fill="#EC5F9D"/>
<path d="M174.418 84.846C174.418 82.9457 172.877 81.4046 170.977 81.4046C169.077 81.4046 167.536 82.9457 167.536 84.846V94.6464V99.3895L174.418 92.3721V84.846Z" fill="#304B54"/>
<path d="M166.174 94.6464V81.1502C166.174 79.2799 164.663 77.7537 162.793 77.7537C160.922 77.7537 159.396 79.2799 159.396 81.1502V92.8209C159.406 92.8409 159.411 92.8608 159.411 92.8808V106.108C159.411 106.556 159.037 106.931 158.573 106.931C158.109 106.931 157.735 106.556 157.735 106.108V104.492V92.8808V84.5916C157.735 82.826 156.314 81.4046 154.548 81.4046C152.798 81.4046 151.376 82.826 151.376 84.5916V98.8209L151.361 98.8059V106.437C151.361 106.99 150.927 107.424 150.374 107.424C149.835 107.424 149.386 106.99 149.386 106.437V97.0404V92.5815V90.1726C149.386 88.4369 147.995 87.0454 146.259 87.0454C144.538 87.0454 143.132 88.4369 143.132 90.1726V91.4743V115.818V123.165C143.132 123.524 143.142 123.878 143.162 124.227L166.174 100.766V94.6464Z" fill="#304B54"/>
<path d="M174.419 112.497V104.372L146.199 133.145C149.401 137.858 154.788 140.955 160.907 140.955C170.738 140.955 178.698 132.995 178.698 123.165L187.256 104.177C188.139 102.487 187.511 100.407 185.835 99.5092C184.159 98.6264 182.064 99.2548 181.182 100.931L174.419 113.604C168.03 114.038 162.957 119.379 162.957 125.873C162.957 126.187 162.718 126.427 162.404 126.427C162.104 126.427 161.85 126.187 161.85 125.873C161.85 118.766 167.416 112.931 174.419 112.497Z" fill="#304B54"/>
<path d="M175.885 130.092C175.885 130.003 175.96 129.943 176.035 129.943C176.124 129.943 176.184 130.003 176.184 130.092C176.184 130.167 176.124 130.242 176.035 130.242C175.96 130.242 175.885 130.167 175.885 130.092ZM175.885 128.596C175.885 128.506 175.96 128.447 176.035 128.447C176.124 128.447 176.184 128.506 176.184 128.596C176.184 128.671 176.124 128.746 176.035 128.746C175.96 128.746 175.885 128.671 175.885 128.596ZM175.885 127.1C175.885 127.01 175.96 126.95 176.035 126.95C176.124 126.95 176.184 127.01 176.184 127.1C176.184 127.175 176.124 127.25 176.035 127.25C175.96 127.25 175.885 127.175 175.885 127.1ZM175.885 125.604C175.885 125.514 175.96 125.454 176.035 125.454C176.124 125.454 176.184 125.514 176.184 125.604C176.184 125.679 176.124 125.753 176.035 125.753C175.96 125.753 175.885 125.679 175.885 125.604ZM175.885 124.107C175.885 124.018 175.96 123.958 176.035 123.958C176.124 123.958 176.184 124.018 176.184 124.107C176.184 124.182 176.124 124.257 176.035 124.257C175.96 124.257 175.885 124.182 175.885 124.107ZM175.885 122.611C175.885 122.521 175.96 122.462 176.035 122.462C176.124 122.462 176.184 122.521 176.184 122.611C176.184 122.686 176.124 122.761 176.035 122.761C175.96 122.761 175.885 122.686 175.885 122.611ZM175.885 121.115C175.885 121.025 175.96 120.965 176.035 120.965C176.124 120.965 176.184 121.025 176.184 121.115C176.184 121.205 176.124 121.265 176.035 121.265C175.96 121.265 175.885 121.205 175.885 121.115Z" fill="white"/>
<path d="M177.456 128.372C177.456 128.282 177.516 128.222 177.606 128.222C177.695 128.222 177.755 128.282 177.755 128.372C177.755 128.447 177.695 128.521 177.606 128.521C177.516 128.521 177.456 128.447 177.456 128.372ZM177.456 126.876C177.456 126.786 177.516 126.726 177.606 126.726C177.695 126.726 177.755 126.786 177.755 126.876C177.755 126.95 177.695 127.025 177.606 127.025C177.516 127.025 177.456 126.95 177.456 126.876ZM177.456 125.379C177.456 125.289 177.516 125.23 177.606 125.23C177.695 125.23 177.755 125.289 177.755 125.379C177.755 125.454 177.695 125.529 177.606 125.529C177.516 125.529 177.456 125.454 177.456 125.379ZM177.456 123.883C177.456 123.793 177.516 123.733 177.606 123.733C177.695 123.733 177.755 123.793 177.755 123.883C177.755 123.958 177.695 124.033 177.606 124.033C177.516 124.033 177.456 123.958 177.456 123.883ZM177.456 122.387C177.456 122.297 177.516 122.237 177.606 122.237C177.695 122.237 177.755 122.297 177.755 122.387C177.755 122.477 177.695 122.536 177.606 122.536C177.516 122.536 177.456 122.477 177.456 122.387ZM177.456 120.891C177.456 120.801 177.516 120.741 177.606 120.741C177.695 120.741 177.755 120.801 177.755 120.891C177.755 120.98 177.695 121.04 177.606 121.04C177.516 121.04 177.456 120.98 177.456 120.891ZM177.456 119.394C177.456 119.305 177.516 119.245 177.606 119.245C177.695 119.245 177.755 119.305 177.755 119.394C177.755 119.484 177.695 119.544 177.606 119.544C177.516 119.544 177.456 119.484 177.456 119.394Z" fill="white"/>
<path d="M171.98 91.0853C171.98 91.0105 172.039 90.9357 172.129 90.9357C172.204 90.9357 172.279 91.0105 172.279 91.0853C172.279 91.1751 172.204 91.2349 172.129 91.2349C172.039 91.2349 171.98 91.1751 171.98 91.0853ZM171.98 89.5891C171.98 89.5143 172.039 89.4395 172.129 89.4395C172.204 89.4395 172.279 89.5143 172.279 89.5891C172.279 89.6789 172.204 89.7387 172.129 89.7387C172.039 89.7387 171.98 89.6789 171.98 89.5891ZM171.98 88.0928C171.98 88.018 172.039 87.9432 172.129 87.9432C172.204 87.9432 172.279 88.018 172.279 88.0928C172.279 88.1826 172.204 88.2425 172.129 88.2425C172.039 88.2425 171.98 88.1826 171.98 88.0928ZM171.98 86.5966C171.98 86.5218 172.039 86.447 172.129 86.447C172.204 86.447 172.279 86.5218 172.279 86.5966C172.279 86.6864 172.204 86.7462 172.129 86.7462C172.039 86.7462 171.98 86.6864 171.98 86.5966ZM171.98 85.1003C171.98 85.0255 172.039 84.9507 172.129 84.9507C172.204 84.9507 172.279 85.0255 172.279 85.1003C172.279 85.1901 172.204 85.25 172.129 85.25C172.039 85.25 171.98 85.1901 171.98 85.1003ZM171.98 83.6041C171.98 83.5293 172.039 83.4545 172.129 83.4545C172.204 83.4545 172.279 83.5293 172.279 83.6041C172.279 83.6939 172.204 83.7537 172.129 83.7537C172.039 83.7537 171.98 83.6939 171.98 83.6041Z" fill="white"/>
<path d="M164.947 90.2325C164.947 90.1577 165.022 90.0829 165.097 90.0829C165.187 90.0829 165.247 90.1577 165.247 90.2325C165.247 90.3223 165.187 90.3821 165.097 90.3821C165.022 90.3821 164.947 90.3223 164.947 90.2325ZM164.947 88.7362C164.947 88.6614 165.022 88.5866 165.097 88.5866C165.187 88.5866 165.247 88.6614 165.247 88.7362C165.247 88.826 165.187 88.8859 165.097 88.8859C165.022 88.8859 164.947 88.826 164.947 88.7362ZM164.947 87.24C164.947 87.1652 165.022 87.0904 165.097 87.0904C165.187 87.0904 165.247 87.1652 165.247 87.24C165.247 87.3298 165.187 87.3896 165.097 87.3896C165.022 87.3896 164.947 87.3298 164.947 87.24ZM164.947 85.7437C164.947 85.6689 165.022 85.5941 165.097 85.5941C165.187 85.5941 165.247 85.6689 165.247 85.7437C165.247 85.8335 165.187 85.8934 165.097 85.8934C165.022 85.8934 164.947 85.8335 164.947 85.7437ZM164.947 84.2475C164.947 84.1727 165.022 84.0979 165.097 84.0979C165.187 84.0979 165.247 84.1727 165.247 84.2475C165.247 84.3373 165.187 84.3971 165.097 84.3971C165.022 84.3971 164.947 84.3373 164.947 84.2475ZM164.947 82.7512C164.947 82.6764 165.022 82.6016 165.097 82.6016C165.187 82.6016 165.247 82.6764 165.247 82.7512C165.247 82.841 165.187 82.9009 165.097 82.9009C165.022 82.9009 164.947 82.841 164.947 82.7512ZM164.947 81.255C164.947 81.1802 165.022 81.1054 165.097 81.1054C165.187 81.1054 165.247 81.1802 165.247 81.255C165.247 81.3448 165.187 81.4046 165.097 81.4046C165.022 81.4046 164.947 81.3448 164.947 81.255ZM164.947 79.7588C164.947 79.6839 165.022 79.6091 165.097 79.6091C165.187 79.6091 165.247 79.6839 165.247 79.7588C165.247 79.8485 165.187 79.9084 165.097 79.9084C165.022 79.9084 164.947 79.8485 164.947 79.7588Z" fill="white"/>
<path d="M173.536 88.8858C173.536 88.7961 173.611 88.7362 173.685 88.7362C173.775 88.7362 173.835 88.7961 173.835 88.8858C173.835 88.9606 173.775 89.0355 173.685 89.0355C173.611 89.0355 173.536 88.9606 173.536 88.8858ZM173.536 87.3896C173.536 87.2998 173.611 87.24 173.685 87.24C173.775 87.24 173.835 87.2998 173.835 87.3896C173.835 87.4644 173.775 87.5392 173.685 87.5392C173.611 87.5392 173.536 87.4644 173.536 87.3896ZM173.536 85.8933C173.536 85.8036 173.611 85.7437 173.685 85.7437C173.775 85.7437 173.835 85.8036 173.835 85.8933C173.835 85.9682 173.775 86.043 173.685 86.043C173.611 86.043 173.536 85.9682 173.536 85.8933ZM173.536 84.3971C173.536 84.3073 173.611 84.2475 173.685 84.2475C173.775 84.2475 173.835 84.3073 173.835 84.3971C173.835 84.4719 173.775 84.5467 173.685 84.5467C173.611 84.5467 173.536 84.4719 173.536 84.3971Z" fill="white"/>
<path d="M163.496 89.4394C163.496 89.3497 163.556 89.2898 163.645 89.2898C163.735 89.2898 163.795 89.3497 163.795 89.4394C163.795 89.5292 163.735 89.5891 163.645 89.5891C163.556 89.5891 163.496 89.5292 163.496 89.4394ZM163.496 87.9432C163.496 87.8534 163.556 87.7936 163.645 87.7936C163.735 87.7936 163.795 87.8534 163.795 87.9432C163.795 88.018 163.735 88.0928 163.645 88.0928C163.556 88.0928 163.496 88.018 163.496 87.9432ZM163.496 86.447C163.496 86.3572 163.556 86.2973 163.645 86.2973C163.735 86.2973 163.795 86.3572 163.795 86.447C163.795 86.5218 163.735 86.5966 163.645 86.5966C163.556 86.5966 163.496 86.5218 163.496 86.447ZM163.496 84.9507C163.496 84.8609 163.556 84.8011 163.645 84.8011C163.735 84.8011 163.795 84.8609 163.795 84.9507C163.795 85.0405 163.735 85.1003 163.645 85.1003C163.556 85.1003 163.496 85.0405 163.496 84.9507ZM163.496 83.4545C163.496 83.3647 163.556 83.3048 163.645 83.3048C163.735 83.3048 163.795 83.3647 163.795 83.4545C163.795 83.5442 163.735 83.6041 163.645 83.6041C163.556 83.6041 163.496 83.5442 163.496 83.4545ZM163.496 81.9582C163.496 81.8684 163.556 81.8086 163.645 81.8086C163.735 81.8086 163.795 81.8684 163.795 81.9582C163.795 82.033 163.735 82.1078 163.645 82.1078C163.556 82.1078 163.496 82.033 163.496 81.9582Z" fill="white"/>
<path d="M174.329 131.708C174.329 131.634 174.389 131.559 174.478 131.559C174.553 131.559 174.628 131.634 174.628 131.708C174.628 131.798 174.553 131.858 174.478 131.858C174.389 131.858 174.329 131.798 174.329 131.708ZM174.329 130.212C174.329 130.137 174.389 130.062 174.478 130.062C174.553 130.062 174.628 130.137 174.628 130.212C174.628 130.302 174.553 130.362 174.478 130.362C174.389 130.362 174.329 130.302 174.329 130.212ZM174.329 128.716C174.329 128.641 174.389 128.566 174.478 128.566C174.553 128.566 174.628 128.641 174.628 128.716C174.628 128.806 174.553 128.866 174.478 128.866C174.389 128.866 174.329 128.806 174.329 128.716ZM174.329 127.22C174.329 127.145 174.389 127.07 174.478 127.07C174.553 127.07 174.628 127.145 174.628 127.22C174.628 127.309 174.553 127.369 174.478 127.369C174.389 127.369 174.329 127.309 174.329 127.22ZM174.329 125.723C174.329 125.649 174.389 125.574 174.478 125.574C174.553 125.574 174.628 125.649 174.628 125.723C174.628 125.813 174.553 125.873 174.478 125.873C174.389 125.873 174.329 125.813 174.329 125.723ZM174.329 124.227C174.329 124.152 174.389 124.078 174.478 124.078C174.553 124.078 174.628 124.152 174.628 124.227C174.628 124.317 174.553 124.377 174.478 124.377C174.389 124.377 174.329 124.317 174.329 124.227Z" fill="white"/>
<path d="M178.728 118.108C178.653 118.078 178.623 117.988 178.653 117.913C178.683 117.838 178.773 117.808 178.847 117.838C178.922 117.868 178.967 117.958 178.922 118.033C178.907 118.093 178.847 118.122 178.788 118.122C178.768 118.122 178.748 118.118 178.728 118.108ZM179.326 116.731C179.251 116.701 179.207 116.611 179.236 116.536C179.281 116.462 179.356 116.432 179.431 116.462C179.521 116.492 179.551 116.581 179.521 116.656C179.491 116.716 179.431 116.746 179.386 116.746C179.366 116.746 179.346 116.741 179.326 116.731ZM179.91 115.354C179.835 115.325 179.805 115.235 179.835 115.16C179.865 115.085 179.955 115.055 180.029 115.085C180.104 115.115 180.134 115.205 180.104 115.28C180.089 115.339 180.029 115.369 179.97 115.369C179.95 115.369 179.93 115.364 179.91 115.354ZM180.493 113.978C180.418 113.948 180.389 113.858 180.418 113.783C180.448 113.709 180.538 113.679 180.613 113.709C180.688 113.738 180.733 113.828 180.703 113.903C180.673 113.963 180.613 113.993 180.553 113.993C180.533 113.993 180.513 113.988 180.493 113.978ZM181.092 112.601C181.017 112.571 180.972 112.482 181.017 112.407C181.047 112.332 181.137 112.302 181.211 112.332C181.286 112.362 181.316 112.452 181.286 112.527C181.256 112.586 181.211 112.616 181.152 112.616C181.132 112.616 181.112 112.611 181.092 112.601ZM181.675 111.24C181.6 111.195 181.571 111.12 181.6 111.03C181.63 110.955 181.72 110.926 181.795 110.955C181.87 110.985 181.9 111.075 181.87 111.15C181.855 111.21 181.795 111.24 181.735 111.24C181.715 111.25 181.695 111.25 181.675 111.24ZM182.274 109.863C182.199 109.833 182.154 109.744 182.184 109.669C182.229 109.579 182.304 109.549 182.379 109.579C182.468 109.609 182.498 109.699 182.468 109.773C182.438 109.833 182.379 109.863 182.334 109.863C182.314 109.873 182.294 109.873 182.274 109.863ZM182.857 108.487C182.783 108.457 182.753 108.367 182.783 108.292C182.812 108.217 182.902 108.172 182.977 108.202C183.052 108.247 183.082 108.322 183.052 108.412C183.022 108.457 182.977 108.502 182.917 108.502C182.897 108.502 182.877 108.497 182.857 108.487ZM183.441 107.11C183.366 107.08 183.336 106.99 183.366 106.916C183.396 106.841 183.486 106.796 183.561 106.826C183.635 106.871 183.68 106.96 183.635 107.035C183.62 107.08 183.561 107.125 183.501 107.125C183.481 107.125 183.461 107.12 183.441 107.11ZM184.039 105.734C183.965 105.704 183.92 105.614 183.965 105.539C183.994 105.464 184.084 105.419 184.159 105.464C184.234 105.494 184.264 105.584 184.234 105.659C184.204 105.704 184.159 105.749 184.099 105.749C184.079 105.749 184.059 105.744 184.039 105.734Z" fill="white"/>
<path d="M178.728 120.726C178.653 120.696 178.623 120.606 178.653 120.531C178.683 120.457 178.773 120.427 178.847 120.457C178.922 120.487 178.967 120.576 178.922 120.651C178.907 120.711 178.847 120.741 178.788 120.741C178.768 120.741 178.748 120.736 178.728 120.726ZM179.341 119.364C179.266 119.319 179.221 119.245 179.266 119.17C179.296 119.08 179.386 119.05 179.461 119.08C179.536 119.125 179.566 119.215 179.536 119.29C179.506 119.334 179.446 119.379 179.401 119.379C179.381 119.379 179.361 119.374 179.341 119.364ZM179.94 117.988C179.865 117.958 179.835 117.868 179.865 117.793C179.895 117.719 179.985 117.689 180.059 117.719C180.134 117.748 180.179 117.838 180.134 117.913C180.119 117.973 180.059 118.003 180 118.003C179.98 118.003 179.96 117.998 179.94 117.988ZM180.553 116.626C180.478 116.596 180.433 116.507 180.478 116.432C180.508 116.357 180.598 116.312 180.673 116.357C180.748 116.387 180.778 116.477 180.748 116.551C180.718 116.596 180.673 116.641 180.613 116.641C180.593 116.641 180.573 116.636 180.553 116.626ZM181.152 115.25C181.077 115.22 181.047 115.13 181.077 115.055C181.107 114.98 181.197 114.95 181.271 114.98C181.346 115.01 181.391 115.1 181.346 115.175C181.331 115.235 181.271 115.265 181.211 115.265C181.192 115.265 181.172 115.26 181.152 115.25ZM181.765 113.888C181.69 113.858 181.645 113.768 181.69 113.694C181.72 113.619 181.81 113.574 181.885 113.619C181.96 113.649 181.99 113.738 181.96 113.813C181.93 113.873 181.885 113.903 181.825 113.903C181.805 113.903 181.785 113.898 181.765 113.888ZM182.364 112.527C182.289 112.482 182.259 112.392 182.289 112.317C182.319 112.242 182.408 112.212 182.483 112.242C182.558 112.287 182.603 112.362 182.558 112.437C182.543 112.497 182.483 112.527 182.423 112.527C182.403 112.537 182.384 112.537 182.364 112.527ZM182.977 111.15C182.902 111.12 182.857 111.03 182.902 110.955C182.932 110.881 183.022 110.851 183.097 110.881C183.172 110.911 183.201 111 183.172 111.075C183.142 111.135 183.097 111.165 183.037 111.165C183.017 111.165 182.997 111.16 182.977 111.15ZM183.576 109.788C183.501 109.744 183.471 109.669 183.501 109.594C183.531 109.504 183.62 109.474 183.695 109.504C183.77 109.549 183.815 109.639 183.77 109.714C183.755 109.758 183.695 109.803 183.635 109.803C183.615 109.803 183.595 109.798 183.576 109.788Z" fill="white"/>
<path d="M259.098 78.5695C259.049 78.4761 259.049 78.3645 259.098 78.2711L259.263 77.9594C259.517 77.4798 259.379 76.8753 258.942 76.5533L258.659 76.3441C258.573 76.2813 258.525 76.1808 258.529 76.0753L258.543 75.7228C258.563 75.1805 258.177 74.6958 257.643 74.5952L257.297 74.5299C257.193 74.5103 257.106 74.4408 257.063 74.3438L256.923 74.0205C256.706 73.523 256.147 73.2539 255.623 73.3947L255.283 73.4862C255.181 73.5136 255.072 73.4888 254.992 73.4198L254.725 73.1896C254.314 72.8354 253.693 72.8354 253.282 73.1896L253.015 73.4198C252.935 73.4888 252.826 73.5136 252.724 73.4862L252.384 73.3947C251.86 73.2539 251.301 73.523 251.084 74.0205L250.943 74.3439C250.901 74.4408 250.814 74.5103 250.71 74.5299L250.364 74.5952C249.83 74.6958 249.444 75.1805 249.464 75.7228L249.478 76.0753C249.482 76.1809 249.433 76.2814 249.348 76.3441L249.064 76.5534C248.628 76.8753 248.49 77.4798 248.743 77.9594L248.908 78.2711C248.958 78.3645 248.958 78.4761 248.908 78.5695L248.743 78.8812C248.49 79.3608 248.628 79.9653 249.064 80.2873L249.348 80.4965C249.433 80.5593 249.482 80.6597 249.478 80.7654L249.464 81.1178C249.444 81.6601 249.83 82.1449 250.364 82.2454L250.545 82.2797L250.572 83.1193L252.51 84.1041L253.351 83.7054C253.544 83.8461 253.774 83.9167 254.003 83.9167C254.23 83.9167 254.456 83.8484 254.647 83.7119L255.339 84.1827L257.278 83.1939L257.45 82.2818L257.643 82.2454C258.177 82.1448 258.563 81.6601 258.543 81.1178L258.529 80.7654C258.525 80.6597 258.574 80.5592 258.659 80.4965L258.943 80.2873C259.379 79.9653 259.517 79.3608 259.263 78.8812L259.098 78.5695Z" fill="url(#paint2_linear_111_33)"/>
<path d="M257.54 78.4203C257.54 76.4705 255.953 74.8842 254.003 74.8842C252.054 74.8842 250.467 76.4705 250.467 78.4203C250.467 80.37 252.054 81.9563 254.003 81.9563C255.953 81.9563 257.54 80.37 257.54 78.4203ZM255.772 78.216L255.173 78.8002L255.314 79.6253C255.34 79.7726 255.279 79.9216 255.158 80.0095C255.038 80.0966 254.878 80.1096 254.744 80.0394L254.003 79.6499L253.263 80.0394C253.13 80.109 252.97 80.0975 252.849 80.0095C252.728 79.9216 252.667 79.7727 252.693 79.6253L252.834 78.8002L252.235 78.216C252.128 78.1116 252.089 77.9554 252.135 77.8132C252.181 77.671 252.304 77.5673 252.452 77.5458L253.281 77.4255L253.651 76.6748C253.717 76.5407 253.854 76.4558 254.003 76.4558C254.153 76.4558 254.29 76.5407 254.356 76.6748L254.726 77.4254L255.555 77.5458C255.703 77.5673 255.826 77.671 255.872 77.8132C255.918 77.9554 255.879 78.1116 255.772 78.216ZM253.015 83.4207C252.935 83.3517 252.826 83.3269 252.724 83.3543L252.384 83.4458C251.86 83.5866 251.301 83.3176 251.084 82.82L250.943 82.4967C250.901 82.3998 250.814 82.3302 250.71 82.3106L250.545 82.2796L249.293 84.5424C249.224 84.6681 249.228 84.8217 249.305 84.943C249.382 85.0643 249.519 85.1341 249.662 85.1247L250.812 85.0506L251.325 86.1088C251.389 86.2411 251.522 86.3266 251.669 86.3303C251.672 86.3304 251.675 86.3304 251.678 86.3304C251.822 86.3304 251.954 86.2525 252.023 86.1265L253.351 83.7053C253.328 83.6882 253.305 83.6702 253.282 83.6509L253.015 83.4207ZM258.701 84.5425L257.45 82.2817L257.297 82.3106C257.193 82.3302 257.106 82.3998 257.064 82.4967L256.923 82.82C256.745 83.2286 256.336 83.483 255.906 83.483C255.812 83.483 255.717 83.471 255.623 83.4458L255.283 83.3543C255.181 83.3269 255.072 83.3517 254.992 83.4207L254.725 83.6509C254.699 83.6726 254.674 83.6929 254.647 83.7119L255.972 86.1265C256.041 86.2525 256.173 86.3304 256.316 86.3304C256.319 86.3304 256.323 86.3304 256.326 86.3303C256.473 86.3266 256.606 86.2412 256.67 86.1089L257.182 85.0506L258.332 85.1248C258.475 85.1341 258.613 85.0643 258.689 84.943C258.766 84.8217 258.771 84.6681 258.701 84.5425Z" fill="url(#paint3_linear_111_33)"/>
<path d="M263.595 82.1272V76.9271H265.352C265.76 76.9271 266.093 77.0007 266.352 77.148C266.613 77.2936 266.806 77.4908 266.931 77.7396C267.057 77.9885 267.119 78.2661 267.119 78.5725C267.119 78.8788 267.057 79.1573 266.931 79.4078C266.808 79.6583 266.616 79.8581 266.357 80.0071C266.098 80.1543 265.767 80.228 265.362 80.228H264.103V79.6694H265.342C265.621 79.6694 265.845 79.6211 266.015 79.5246C266.184 79.4281 266.307 79.2978 266.383 79.1336C266.461 78.9677 266.5 78.7807 266.5 78.5725C266.5 78.3642 266.461 78.178 266.383 78.0138C266.307 77.8497 266.183 77.721 266.012 77.6279C265.841 77.5331 265.614 77.4857 265.332 77.4857H264.225V82.1272H263.595ZM268.052 82.1272V78.2271H268.631V78.8162H268.672C268.743 78.6232 268.872 78.4667 269.058 78.3465C269.244 78.2263 269.454 78.1662 269.688 78.1662C269.732 78.1662 269.787 78.167 269.853 78.1687C269.919 78.1704 269.969 78.173 270.002 78.1764V78.7857C269.982 78.7807 269.936 78.773 269.863 78.7629C269.792 78.751 269.716 78.7451 269.637 78.7451C269.447 78.7451 269.278 78.7849 269.129 78.8645C268.982 78.9423 268.865 79.0507 268.779 79.1895C268.694 79.3266 268.652 79.4831 268.652 79.6592V82.1272H268.052ZM272.229 82.2085C271.853 82.2085 271.529 82.1255 271.257 81.9596C270.986 81.792 270.777 81.5585 270.63 81.2588C270.484 80.9575 270.411 80.6071 270.411 80.2076C270.411 79.8082 270.484 79.4561 270.63 79.1514C270.777 78.845 270.982 78.6063 271.244 78.4353C271.508 78.2627 271.816 78.1764 272.168 78.1764C272.371 78.1764 272.572 78.2102 272.77 78.2779C272.968 78.3456 273.148 78.4557 273.311 78.608C273.473 78.7587 273.603 78.9584 273.699 79.2072C273.796 79.4561 273.844 79.7625 273.844 80.1264V80.3803H270.838V79.8623H273.235C273.235 79.6423 273.191 79.4459 273.103 79.2732C273.016 79.1006 272.893 78.9643 272.732 78.8645C272.573 78.7646 272.385 78.7146 272.168 78.7146C271.93 78.7146 271.723 78.7739 271.549 78.8924C271.376 79.0092 271.243 79.1615 271.15 79.3494C271.057 79.5373 271.01 79.7388 271.01 79.9537V80.2991C271.01 80.5936 271.061 80.8433 271.163 81.0481C271.266 81.2512 271.409 81.4061 271.592 81.5127C271.775 81.6177 271.987 81.6702 272.229 81.6702C272.387 81.6702 272.529 81.6482 272.656 81.6042C272.784 81.5585 272.895 81.4907 272.988 81.401C273.081 81.3096 273.153 81.1962 273.204 81.0608L273.783 81.2233C273.722 81.4196 273.62 81.5923 273.476 81.7413C273.332 81.8885 273.154 82.0036 272.943 82.0866C272.731 82.1678 272.493 82.2085 272.229 82.2085ZM274.756 82.1272V78.2271H275.335V78.8365H275.385C275.467 78.6283 275.598 78.4667 275.779 78.3516C275.96 78.2348 276.177 78.1764 276.431 78.1764C276.689 78.1764 276.903 78.2348 277.074 78.3516C277.246 78.4667 277.381 78.6283 277.478 78.8365H277.518C277.618 78.6351 277.768 78.4751 277.968 78.3566C278.167 78.2364 278.407 78.1764 278.686 78.1764C279.035 78.1764 279.32 78.2855 279.542 78.5039C279.764 78.7206 279.874 79.0583 279.874 79.517V82.1272H279.275V79.517C279.275 79.2292 279.196 79.0236 279.039 78.9C278.882 78.7764 278.696 78.7146 278.483 78.7146C278.209 78.7146 277.996 78.7976 277.846 78.9635C277.695 79.1277 277.62 79.3359 277.62 79.5881V82.1272H277.01V79.4561C277.01 79.2343 276.938 79.0557 276.794 78.9203C276.651 78.7832 276.465 78.7146 276.238 78.7146C276.083 78.7146 275.937 78.7561 275.802 78.8391C275.668 78.922 275.56 79.0371 275.477 79.1844C275.395 79.33 275.355 79.4984 275.355 79.6897V82.1272H274.756ZM280.97 82.1272V78.2271H281.569V82.1272H280.97ZM281.275 77.5771C281.158 77.5771 281.057 77.5373 280.973 77.4578C280.89 77.3782 280.848 77.2826 280.848 77.1709C280.848 77.0591 280.89 76.9635 280.973 76.8839C281.057 76.8044 281.158 76.7646 281.275 76.7646C281.392 76.7646 281.491 76.8044 281.574 76.8839C281.659 76.9635 281.701 77.0591 281.701 77.1709C281.701 77.2826 281.659 77.3782 281.574 77.4578C281.491 77.5373 281.392 77.5771 281.275 77.5771ZM285.125 80.5326V78.2271H285.724V82.1272H285.125V81.467H285.084C284.993 81.6651 284.85 81.8335 284.657 81.9723C284.465 82.1094 284.221 82.178 283.926 82.178C283.682 82.178 283.466 82.1247 283.276 82.018C283.087 81.9097 282.938 81.7472 282.829 81.5305C282.721 81.3122 282.667 81.0371 282.667 80.7053V78.2271H283.266V80.6647C283.266 80.9491 283.346 81.1759 283.505 81.3452C283.666 81.5144 283.87 81.5991 284.119 81.5991C284.268 81.5991 284.42 81.561 284.574 81.4848C284.729 81.4086 284.86 81.2918 284.965 81.1344C285.071 80.977 285.125 80.7764 285.125 80.5326ZM286.821 82.1272V78.2271H287.4V78.8365H287.451C287.532 78.6283 287.664 78.4667 287.845 78.3516C288.026 78.2348 288.243 78.1764 288.497 78.1764C288.755 78.1764 288.969 78.2348 289.14 78.3516C289.312 78.4667 289.447 78.6283 289.543 78.8365H289.584C289.684 78.6351 289.834 78.4751 290.033 78.3566C290.233 78.2364 290.473 78.1764 290.752 78.1764C291.101 78.1764 291.386 78.2855 291.608 78.5039C291.829 78.7206 291.94 79.0583 291.94 79.517V82.1272H291.341V79.517C291.341 79.2292 291.262 79.0236 291.105 78.9C290.948 78.7764 290.762 78.7146 290.549 78.7146C290.275 78.7146 290.062 78.7976 289.912 78.9635C289.761 79.1277 289.686 79.3359 289.686 79.5881V82.1272H289.076V79.4561C289.076 79.2343 289.004 79.0557 288.86 78.9203C288.716 78.7832 288.531 78.7146 288.304 78.7146C288.149 78.7146 288.003 78.7561 287.868 78.8391C287.734 78.922 287.626 79.0371 287.543 79.1844C287.461 79.33 287.421 79.4984 287.421 79.6897V82.1272H286.821ZM299.313 78.5521H298.683C298.646 78.371 298.581 78.2119 298.487 78.0748C298.396 77.9377 298.284 77.8226 298.152 77.7295C298.022 77.6347 297.877 77.5636 297.718 77.5162C297.559 77.4688 297.393 77.4451 297.22 77.4451C296.906 77.4451 296.62 77.5246 296.365 77.6838C296.111 77.8429 295.909 78.0773 295.758 78.3871C295.609 78.6969 295.534 79.0769 295.534 79.5272C295.534 79.9774 295.609 80.3575 295.758 80.6672C295.909 80.977 296.111 81.2114 296.365 81.3706C296.62 81.5297 296.906 81.6092 297.22 81.6092C297.393 81.6092 297.559 81.5855 297.718 81.5381C297.877 81.4907 298.022 81.4205 298.152 81.3274C298.284 81.2326 298.396 81.1166 298.487 80.9795C298.581 80.8407 298.646 80.6816 298.683 80.5022H299.313C299.265 80.7679 299.179 81.0058 299.054 81.2157C298.928 81.4256 298.773 81.6042 298.586 81.7514C298.4 81.897 298.191 82.0079 297.959 82.084C297.729 82.1602 297.483 82.1983 297.22 82.1983C296.777 82.1983 296.382 82.09 296.037 81.8733C295.692 81.6566 295.42 81.3486 295.222 80.9491C295.024 80.5496 294.925 80.0756 294.925 79.5272C294.925 78.9787 295.024 78.5047 295.222 78.1053C295.42 77.7058 295.692 77.3977 296.037 77.181C296.382 76.9643 296.777 76.856 297.22 76.856C297.483 76.856 297.729 76.8941 297.959 76.9703C298.191 77.0464 298.4 77.1582 298.586 77.3054C298.773 77.451 298.928 77.6287 299.054 77.8386C299.179 78.0469 299.265 78.2847 299.313 78.5521ZM301.833 82.2085C301.481 82.2085 301.172 82.1247 300.907 81.9571C300.642 81.7895 300.436 81.5551 300.287 81.2538C300.14 80.9524 300.066 80.6004 300.066 80.1975C300.066 79.7912 300.14 79.4366 300.287 79.1336C300.436 78.8306 300.642 78.5953 300.907 78.4277C301.172 78.2601 301.481 78.1764 301.833 78.1764C302.185 78.1764 302.493 78.2601 302.758 78.4277C303.023 78.5953 303.23 78.8306 303.377 79.1336C303.526 79.4366 303.601 79.7912 303.601 80.1975C303.601 80.6004 303.526 80.9524 303.377 81.2538C303.23 81.5551 303.023 81.7895 302.758 81.9571C302.493 82.1247 302.185 82.2085 301.833 82.2085ZM301.833 81.6702C302.101 81.6702 302.321 81.6016 302.493 81.4645C302.666 81.3274 302.794 81.1471 302.877 80.9237C302.96 80.7002 303.001 80.4582 303.001 80.1975C303.001 79.9368 302.96 79.6939 302.877 79.4688C302.794 79.2436 302.666 79.0617 302.493 78.9229C302.321 78.784 302.101 78.7146 301.833 78.7146C301.566 78.7146 301.346 78.784 301.173 78.9229C301.001 79.0617 300.873 79.2436 300.79 79.4688C300.707 79.6939 300.665 79.9368 300.665 80.1975C300.665 80.4582 300.707 80.7002 300.79 80.9237C300.873 81.1471 301.001 81.3274 301.173 81.4645C301.346 81.6016 301.566 81.6702 301.833 81.6702ZM305.114 79.7811V82.1272H304.515V78.2271H305.094V78.8365H305.145C305.236 78.6385 305.375 78.4794 305.561 78.3592C305.748 78.2373 305.988 78.1764 306.282 78.1764C306.547 78.1764 306.778 78.2305 306.976 78.3389C307.174 78.4455 307.328 78.608 307.438 78.8264C307.548 79.043 307.603 79.3173 307.603 79.649V82.1272H307.004V79.6897C307.004 79.3833 306.924 79.1446 306.765 78.9736C306.606 78.801 306.387 78.7146 306.11 78.7146C305.919 78.7146 305.748 78.7561 305.597 78.8391C305.448 78.922 305.33 79.043 305.244 79.2022C305.158 79.3613 305.114 79.5542 305.114 79.7811ZM310.394 78.2271V78.735H308.373V78.2271H310.394ZM308.962 77.2927H309.561V81.01C309.561 81.1793 309.586 81.3062 309.635 81.3909C309.686 81.4738 309.75 81.5297 309.828 81.5585C309.907 81.5855 309.991 81.5991 310.079 81.5991C310.145 81.5991 310.199 81.5957 310.242 81.5889C310.284 81.5805 310.318 81.5737 310.343 81.5686L310.465 82.1069C310.424 82.1221 310.368 82.1374 310.295 82.1526C310.222 82.1695 310.13 82.178 310.018 82.178C309.849 82.178 309.683 82.1416 309.52 82.0688C309.36 81.996 309.226 81.8852 309.119 81.7362C309.014 81.5872 308.962 81.3993 308.962 81.1725V77.2927ZM312.889 82.2085C312.513 82.2085 312.189 82.1255 311.916 81.9596C311.645 81.792 311.436 81.5585 311.289 81.2588C311.143 80.9575 311.071 80.6071 311.071 80.2076C311.071 79.8082 311.143 79.4561 311.289 79.1514C311.436 78.845 311.641 78.6063 311.903 78.4353C312.168 78.2627 312.476 78.1764 312.828 78.1764C313.031 78.1764 313.231 78.2102 313.429 78.2779C313.628 78.3456 313.808 78.4557 313.97 78.608C314.133 78.7587 314.262 78.9584 314.359 79.2072C314.455 79.4561 314.504 79.7625 314.504 80.1264V80.3803H311.497V79.8623H313.894C313.894 79.6423 313.85 79.4459 313.762 79.2732C313.676 79.1006 313.552 78.9643 313.391 78.8645C313.232 78.7646 313.044 78.7146 312.828 78.7146C312.589 78.7146 312.383 78.7739 312.208 78.8924C312.035 79.0092 311.903 79.1615 311.81 79.3494C311.716 79.5373 311.67 79.7388 311.67 79.9537V80.2991C311.67 80.5936 311.721 80.8433 311.822 81.0481C311.925 81.2512 312.068 81.4061 312.251 81.5127C312.434 81.6177 312.647 81.6702 312.889 81.6702C313.046 81.6702 313.188 81.6482 313.315 81.6042C313.444 81.5585 313.555 81.4907 313.648 81.401C313.741 81.3096 313.813 81.1962 313.864 81.0608L314.443 81.2233C314.382 81.4196 314.279 81.5923 314.135 81.7413C313.991 81.8885 313.814 82.0036 313.602 82.0866C313.391 82.1678 313.153 82.2085 312.889 82.2085ZM316.014 79.7811V82.1272H315.415V78.2271H315.994V78.8365H316.045C316.136 78.6385 316.275 78.4794 316.461 78.3592C316.647 78.2373 316.888 78.1764 317.182 78.1764C317.446 78.1764 317.677 78.2305 317.875 78.3389C318.074 78.4455 318.228 78.608 318.338 78.8264C318.448 79.043 318.503 79.3173 318.503 79.649V82.1272H317.903V79.6897C317.903 79.3833 317.824 79.1446 317.665 78.9736C317.506 78.801 317.287 78.7146 317.01 78.7146C316.818 78.7146 316.647 78.7561 316.497 78.8391C316.348 78.922 316.23 79.043 316.144 79.2022C316.057 79.3613 316.014 79.5542 316.014 79.7811ZM321.294 78.2271V78.735H319.273V78.2271H321.294ZM319.862 77.2927H320.461V81.01C320.461 81.1793 320.485 81.3062 320.535 81.3909C320.585 81.4738 320.65 81.5297 320.728 81.5585C320.807 81.5855 320.891 81.5991 320.979 81.5991C321.045 81.5991 321.099 81.5957 321.141 81.5889C321.184 81.5805 321.218 81.5737 321.243 81.5686L321.365 82.1069C321.324 82.1221 321.267 82.1374 321.195 82.1526C321.122 82.1695 321.03 82.178 320.918 82.178C320.749 82.178 320.583 82.1416 320.42 82.0688C320.259 81.996 320.126 81.8852 320.019 81.7362C319.914 81.5872 319.862 81.3993 319.862 81.1725V77.2927ZM324.287 82.1272V76.9271H326.044C326.452 76.9271 326.786 77.0007 327.045 77.148C327.306 77.2936 327.498 77.4908 327.624 77.7396C327.749 77.9885 327.812 78.2661 327.812 78.5725C327.812 78.8788 327.749 79.1573 327.624 79.4078C327.5 79.6583 327.309 79.8581 327.05 80.0071C326.791 80.1543 326.459 80.228 326.055 80.228H324.795V79.6694H326.034C326.314 79.6694 326.538 79.6211 326.707 79.5246C326.876 79.4281 326.999 79.2978 327.075 79.1336C327.153 78.9677 327.192 78.7807 327.192 78.5725C327.192 78.3642 327.153 78.178 327.075 78.0138C326.999 77.8497 326.876 77.721 326.705 77.6279C326.534 77.5331 326.307 77.4857 326.024 77.4857H324.917V82.1272H324.287ZM329.892 82.2186C329.645 82.2186 329.421 82.1721 329.22 82.079C329.018 81.9842 328.858 81.8479 328.74 81.6702C328.621 81.4907 328.562 81.2741 328.562 81.0202C328.562 80.7967 328.606 80.6156 328.694 80.4768C328.782 80.3363 328.9 80.2263 329.047 80.1467C329.194 80.0671 329.357 80.0079 329.534 79.969C329.714 79.9283 329.894 79.8962 330.075 79.8725C330.312 79.842 330.504 79.8192 330.652 79.8039C330.801 79.787 330.909 79.7591 330.977 79.7201C331.046 79.6812 331.081 79.6135 331.081 79.517V79.4967C331.081 79.2462 331.012 79.0515 330.875 78.9127C330.74 78.7739 330.534 78.7045 330.258 78.7045C329.972 78.7045 329.748 78.7671 329.585 78.8924C329.423 79.0176 329.308 79.1514 329.242 79.2936L328.674 79.0904C328.775 78.8534 328.911 78.6689 329.08 78.5369C329.251 78.4032 329.437 78.3101 329.639 78.2576C329.842 78.2034 330.041 78.1764 330.238 78.1764C330.363 78.1764 330.507 78.1916 330.669 78.2221C330.834 78.2508 330.992 78.3109 331.144 78.4023C331.298 78.4937 331.426 78.6317 331.528 78.8162C331.629 79.0007 331.68 79.2479 331.68 79.5576V82.1272H331.081V81.5991H331.05C331.01 81.6837 330.942 81.7743 330.847 81.8708C330.752 81.9672 330.626 82.0493 330.469 82.1171C330.311 82.1848 330.119 82.2186 329.892 82.2186ZM329.984 81.6803C330.221 81.6803 330.421 81.6338 330.583 81.5407C330.747 81.4476 330.871 81.3274 330.954 81.1801C331.038 81.0329 331.081 80.878 331.081 80.7155V80.167C331.055 80.1975 330.999 80.2254 330.913 80.2508C330.829 80.2745 330.73 80.2957 330.619 80.3143C330.509 80.3312 330.401 80.3464 330.296 80.36C330.193 80.3718 330.109 80.382 330.045 80.3905C329.889 80.4108 329.743 80.4438 329.608 80.4895C329.474 80.5335 329.366 80.6004 329.283 80.6901C329.202 80.7781 329.161 80.8983 329.161 81.0506C329.161 81.2588 329.238 81.4163 329.392 81.5229C329.548 81.6279 329.745 81.6803 329.984 81.6803ZM334.348 83.671C334.058 83.671 333.81 83.6338 333.601 83.5593C333.393 83.4865 333.22 83.39 333.081 83.2698C332.944 83.1513 332.835 83.0244 332.753 82.8889L333.231 82.5538C333.285 82.6249 333.353 82.7061 333.436 82.7975C333.519 82.8906 333.633 82.971 333.777 83.0388C333.922 83.1082 334.113 83.1429 334.348 83.1429C334.663 83.1429 334.923 83.0667 335.127 82.9143C335.332 82.762 335.435 82.5233 335.435 82.1983V81.4061H335.384C335.34 81.4772 335.277 81.5652 335.196 81.6702C335.116 81.7734 335.001 81.8657 334.851 81.9469C334.702 82.0265 334.5 82.0663 334.246 82.0663C333.932 82.0663 333.649 81.9918 333.398 81.8428C333.149 81.6939 332.952 81.4772 332.807 81.1928C332.663 80.9084 332.591 80.5631 332.591 80.1569C332.591 79.7574 332.661 79.4095 332.802 79.1133C332.942 78.8154 333.138 78.5851 333.388 78.4226C333.639 78.2584 333.928 78.1764 334.257 78.1764C334.51 78.1764 334.712 78.2187 334.861 78.3033C335.012 78.3863 335.127 78.481 335.206 78.5877C335.287 78.6926 335.35 78.779 335.394 78.8467H335.455V78.2271H336.034V82.2389C336.034 82.5741 335.958 82.8466 335.805 83.0565C335.655 83.2681 335.452 83.423 335.196 83.5212C334.942 83.6211 334.659 83.671 334.348 83.671ZM334.328 81.528C334.568 81.528 334.771 81.473 334.937 81.3629C335.103 81.2529 335.229 81.0946 335.315 80.8881C335.402 80.6816 335.445 80.4345 335.445 80.1467C335.445 79.8657 335.403 79.6177 335.318 79.4027C335.233 79.1878 335.108 79.0193 334.942 78.8975C334.776 78.7756 334.571 78.7146 334.328 78.7146C334.074 78.7146 333.862 78.779 333.693 78.9076C333.525 79.0363 333.399 79.2089 333.315 79.4256C333.232 79.6423 333.19 79.8826 333.19 80.1467C333.19 80.4175 333.232 80.6571 333.317 80.8653C333.403 81.0718 333.53 81.2343 333.698 81.3528C333.867 81.4696 334.077 81.528 334.328 81.528ZM338.766 82.2085C338.39 82.2085 338.066 82.1255 337.794 81.9596C337.523 81.792 337.314 81.5585 337.166 81.2588C337.021 80.9575 336.948 80.6071 336.948 80.2076C336.948 79.8082 337.021 79.4561 337.166 79.1514C337.314 78.845 337.518 78.6063 337.781 78.4353C338.045 78.2627 338.353 78.1764 338.705 78.1764C338.908 78.1764 339.109 78.2102 339.307 78.2779C339.505 78.3456 339.685 78.4557 339.848 78.608C340.01 78.7587 340.14 78.9584 340.236 79.2072C340.333 79.4561 340.381 79.7625 340.381 80.1264V80.3803H337.375V79.8623H339.772C339.772 79.6423 339.727 79.4459 339.639 79.2732C339.553 79.1006 339.43 78.9643 339.269 78.8645C339.11 78.7646 338.922 78.7146 338.705 78.7146C338.466 78.7146 338.26 78.7739 338.086 78.8924C337.913 79.0092 337.78 79.1615 337.687 79.3494C337.594 79.5373 337.547 79.7388 337.547 79.9537V80.2991C337.547 80.5936 337.598 80.8433 337.7 81.0481C337.803 81.2512 337.946 81.4061 338.129 81.5127C338.312 81.6177 338.524 81.6702 338.766 81.6702C338.923 81.6702 339.066 81.6482 339.193 81.6042C339.321 81.5585 339.432 81.4907 339.525 81.401C339.618 81.3096 339.69 81.1962 339.741 81.0608L340.32 81.2233C340.259 81.4196 340.157 81.5923 340.013 81.7413C339.869 81.8885 339.691 82.0036 339.48 82.0866C339.268 82.1678 339.03 82.2085 338.766 82.2085Z" fill="black"/>
<path d="M225.857 107.33H222.741L227.488 93.5784H231.235L235.976 107.33H232.86L229.415 96.721H229.308L225.857 107.33ZM225.662 101.925H233.021V104.195H225.662V101.925ZM241.757 107.532C240.701 107.532 239.792 107.308 239.031 106.86C238.275 106.408 237.693 105.782 237.285 104.98C236.882 104.179 236.681 103.257 236.681 102.214C236.681 101.157 236.885 100.231 237.292 99.4338C237.704 98.6325 238.288 98.008 239.045 97.5603C239.801 97.1082 240.701 96.8821 241.744 96.8821C242.644 96.8821 243.432 97.0455 244.108 97.3723C244.784 97.6991 245.319 98.158 245.713 98.7489C246.106 99.3398 246.324 100.034 246.364 100.83H243.664C243.588 100.316 243.387 99.9016 243.06 99.5882C242.738 99.2704 242.315 99.1115 241.791 99.1115C241.348 99.1115 240.961 99.2323 240.629 99.4741C240.303 99.7113 240.047 100.058 239.864 100.515C239.68 100.971 239.589 101.524 239.589 102.173C239.589 102.832 239.678 103.391 239.857 103.852C240.041 104.313 240.298 104.665 240.629 104.906C240.961 105.148 241.348 105.269 241.791 105.269C242.118 105.269 242.411 105.202 242.671 105.068C242.935 104.933 243.152 104.739 243.322 104.483C243.497 104.224 243.611 103.913 243.664 103.55H246.364C246.319 104.338 246.104 105.032 245.719 105.632C245.339 106.227 244.813 106.693 244.141 107.028C243.47 107.364 242.675 107.532 241.757 107.532ZM252.855 107.532C251.799 107.532 250.89 107.308 250.129 106.86C249.373 106.408 248.791 105.782 248.383 104.98C247.98 104.179 247.779 103.257 247.779 102.214C247.779 101.157 247.983 100.231 248.39 99.4338C248.802 98.6325 249.386 98.008 250.143 97.5603C250.899 97.1082 251.799 96.8821 252.842 96.8821C253.742 96.8821 254.53 97.0455 255.206 97.3723C255.882 97.6991 256.417 98.158 256.811 98.7489C257.204 99.3398 257.422 100.034 257.462 100.83H254.762C254.686 100.316 254.485 99.9016 254.158 99.5882C253.836 99.2704 253.413 99.1115 252.889 99.1115C252.446 99.1115 252.059 99.2323 251.727 99.4741C251.401 99.7113 251.145 100.058 250.962 100.515C250.778 100.971 250.687 101.524 250.687 102.173C250.687 102.832 250.776 103.391 250.955 103.852C251.139 104.313 251.396 104.665 251.727 104.906C252.059 105.148 252.446 105.269 252.889 105.269C253.216 105.269 253.509 105.202 253.769 105.068C254.033 104.933 254.25 104.739 254.42 104.483C254.595 104.224 254.709 103.913 254.762 103.55H257.462C257.417 104.338 257.202 105.032 256.817 105.632C256.437 106.227 255.911 106.693 255.239 107.028C254.568 107.364 253.773 107.532 252.855 107.532ZM263.994 107.532C262.933 107.532 262.02 107.317 261.254 106.887C260.493 106.453 259.907 105.84 259.495 105.047C259.083 104.251 258.877 103.308 258.877 102.22C258.877 101.16 259.083 100.228 259.495 99.4271C259.907 98.6258 260.486 98.0013 261.234 97.5536C261.986 97.106 262.868 96.8821 263.88 96.8821C264.56 96.8821 265.193 96.9918 265.78 97.2112C266.371 97.426 266.886 97.7506 267.324 98.1848C267.768 98.619 268.112 99.1652 268.358 99.8232C268.605 100.477 268.728 101.242 268.728 102.12V102.905H260.019V101.133H266.035C266.035 100.721 265.946 100.356 265.766 100.038C265.587 99.7203 265.339 99.4718 265.021 99.2928C264.708 99.1092 264.343 99.0175 263.927 99.0175C263.492 99.0175 263.107 99.1182 262.772 99.3196C262.44 99.5166 262.181 99.783 261.993 100.119C261.805 100.45 261.708 100.819 261.704 101.227V102.912C261.704 103.422 261.798 103.863 261.986 104.235C262.178 104.606 262.449 104.893 262.799 105.094C263.148 105.296 263.562 105.397 264.041 105.397C264.359 105.397 264.65 105.352 264.914 105.262C265.178 105.173 265.404 105.038 265.592 104.859C265.78 104.68 265.923 104.461 266.022 104.201L268.667 104.376C268.533 105.012 268.258 105.567 267.841 106.041C267.43 106.511 266.897 106.878 266.243 107.142C265.594 107.402 264.844 107.532 263.994 107.532ZM279.176 99.9575L276.557 100.119C276.513 99.8949 276.416 99.6934 276.269 99.5144C276.121 99.3308 275.926 99.1853 275.684 99.0779C275.447 98.966 275.163 98.91 274.832 98.91C274.388 98.91 274.015 99.004 273.71 99.192C273.406 99.3756 273.254 99.6218 273.254 99.9307C273.254 100.177 273.352 100.385 273.549 100.555C273.746 100.725 274.084 100.862 274.563 100.965L276.43 101.341C277.432 101.547 278.18 101.878 278.672 102.335C279.165 102.791 279.411 103.391 279.411 104.134C279.411 104.81 279.212 105.403 278.813 105.914C278.42 106.424 277.878 106.822 277.188 107.109C276.504 107.391 275.713 107.532 274.818 107.532C273.453 107.532 272.365 107.248 271.555 106.679C270.749 106.106 270.277 105.327 270.138 104.342L272.951 104.195C273.036 104.611 273.242 104.929 273.569 105.148C273.896 105.363 274.315 105.47 274.825 105.47C275.326 105.47 275.729 105.374 276.034 105.182C276.342 104.985 276.499 104.732 276.504 104.423C276.499 104.163 276.389 103.951 276.175 103.785C275.96 103.615 275.628 103.485 275.181 103.396L273.395 103.04C272.387 102.838 271.638 102.489 271.145 101.992C270.657 101.495 270.413 100.862 270.413 100.092C270.413 99.4293 270.592 98.8585 270.95 98.3795C271.313 97.9006 271.821 97.5312 272.475 97.2716C273.133 97.0119 273.903 96.8821 274.785 96.8821C276.087 96.8821 277.112 97.1574 277.86 97.7081C278.612 98.2587 279.051 99.0085 279.176 99.9575ZM289.794 99.9575L287.175 100.119C287.13 99.8949 287.034 99.6934 286.886 99.5144C286.739 99.3308 286.544 99.1853 286.302 99.0779C286.065 98.966 285.781 98.91 285.449 98.91C285.006 98.91 284.632 99.004 284.328 99.192C284.024 99.3756 283.871 99.6218 283.871 99.9307C283.871 100.177 283.97 100.385 284.167 100.555C284.364 100.725 284.702 100.862 285.181 100.965L287.048 101.341C288.05 101.547 288.798 101.878 289.29 102.335C289.783 102.791 290.029 103.391 290.029 104.134C290.029 104.81 289.83 105.403 289.431 105.914C289.037 106.424 288.496 106.822 287.806 107.109C287.121 107.391 286.331 107.532 285.436 107.532C284.071 107.532 282.983 107.248 282.173 106.679C281.367 106.106 280.895 105.327 280.756 104.342L283.569 104.195C283.654 104.611 283.86 104.929 284.187 105.148C284.514 105.363 284.932 105.47 285.443 105.47C285.944 105.47 286.347 105.374 286.651 105.182C286.96 104.985 287.117 104.732 287.121 104.423C287.117 104.163 287.007 103.951 286.792 103.785C286.578 103.615 286.246 103.485 285.799 103.396L284.012 103.04C283.005 102.838 282.255 102.489 281.763 101.992C281.275 101.495 281.031 100.862 281.031 100.092C281.031 99.4293 281.21 98.8585 281.568 98.3795C281.931 97.9006 282.439 97.5312 283.093 97.2716C283.751 97.0119 284.521 96.8821 285.402 96.8821C286.705 96.8821 287.73 97.1574 288.478 97.7081C289.23 98.2587 289.669 99.0085 289.794 99.9575ZM301.135 107.33H296.26V93.5784H301.176C302.559 93.5784 303.75 93.8537 304.748 94.4043C305.746 94.9505 306.514 95.7361 307.051 96.7613C307.593 97.7864 307.864 99.013 307.864 100.441C307.864 101.874 307.593 103.105 307.051 104.134C306.514 105.164 305.742 105.954 304.735 106.505C303.732 107.055 302.532 107.33 301.135 107.33ZM299.168 104.839H301.015C301.874 104.839 302.597 104.687 303.183 104.383C303.774 104.074 304.218 103.597 304.513 102.952C304.813 102.303 304.963 101.466 304.963 100.441C304.963 99.4248 304.813 98.5944 304.513 97.9498C304.218 97.3052 303.777 96.8306 303.19 96.5262C302.604 96.2218 301.881 96.0696 301.021 96.0696H299.168V104.839ZM314.664 107.532C313.603 107.532 312.69 107.317 311.925 106.887C311.164 106.453 310.577 105.84 310.165 105.047C309.753 104.251 309.547 103.308 309.547 102.22C309.547 101.16 309.753 100.228 310.165 99.4271C310.577 98.6258 311.157 98.0013 311.904 97.5536C312.656 97.106 313.538 96.8821 314.55 96.8821C315.23 96.8821 315.864 96.9918 316.45 97.2112C317.041 97.426 317.556 97.7506 317.995 98.1848C318.438 98.619 318.783 99.1652 319.029 99.8232C319.275 100.477 319.398 101.242 319.398 102.12V102.905H310.689V101.133H316.706C316.706 100.721 316.616 100.356 316.437 100.038C316.258 99.7203 316.009 99.4718 315.692 99.2928C315.378 99.1092 315.013 99.0175 314.597 99.0175C314.163 99.0175 313.778 99.1182 313.442 99.3196C313.111 99.5166 312.851 99.783 312.663 100.119C312.475 100.45 312.379 100.819 312.374 101.227V102.912C312.374 103.422 312.468 103.863 312.656 104.235C312.849 104.606 313.12 104.893 313.469 105.094C313.818 105.296 314.232 105.397 314.711 105.397C315.029 105.397 315.32 105.352 315.584 105.262C315.848 105.173 316.074 105.038 316.262 104.859C316.45 104.68 316.594 104.461 316.692 104.201L319.338 104.376C319.203 105.012 318.928 105.567 318.512 106.041C318.1 106.511 317.567 106.878 316.914 107.142C316.265 107.402 315.515 107.532 314.664 107.532ZM324.125 101.368V107.33H321.265V97.0164H323.991V98.8362H324.112C324.34 98.2363 324.723 97.7618 325.26 97.4126C325.797 97.059 326.449 96.8821 327.214 96.8821C327.931 96.8821 328.555 97.0388 329.088 97.3522C329.62 97.6655 330.035 98.1132 330.33 98.6951C330.625 99.2726 330.773 99.962 330.773 100.763V107.33H327.913V101.274C327.917 100.642 327.756 100.15 327.429 99.7964C327.102 99.4383 326.652 99.2592 326.079 99.2592C325.695 99.2592 325.354 99.342 325.059 99.5076C324.768 99.6733 324.54 99.915 324.374 100.233C324.213 100.546 324.13 100.924 324.125 101.368ZM333.028 107.33V97.0164H335.888V107.33H333.028ZM334.465 95.6869C334.039 95.6869 333.675 95.5459 333.37 95.2638C333.07 94.9773 332.92 94.6349 332.92 94.2365C332.92 93.8425 333.07 93.5045 333.37 93.2225C333.675 92.936 334.039 92.7928 334.465 92.7928C334.89 92.7928 335.253 92.936 335.553 93.2225C335.857 93.5045 336.009 93.8425 336.009 94.2365C336.009 94.6349 335.857 94.9773 335.553 95.2638C335.253 95.5459 334.89 95.6869 334.465 95.6869ZM342.88 107.532C341.819 107.532 340.906 107.317 340.14 106.887C339.379 106.453 338.793 105.84 338.381 105.047C337.969 104.251 337.763 103.308 337.763 102.22C337.763 101.16 337.969 100.228 338.381 99.4271C338.793 98.6258 339.373 98.0013 340.12 97.5536C340.872 97.106 341.754 96.8821 342.766 96.8821C343.446 96.8821 344.08 96.9918 344.666 97.2112C345.257 97.426 345.772 97.7506 346.211 98.1848C346.654 98.619 346.999 99.1652 347.245 99.8232C347.491 100.477 347.614 101.242 347.614 102.12V102.905H338.905V101.133H344.921C344.921 100.721 344.832 100.356 344.653 100.038C344.474 99.7203 344.225 99.4718 343.907 99.2928C343.594 99.1092 343.229 99.0175 342.813 99.0175C342.379 99.0175 341.994 99.1182 341.658 99.3196C341.327 99.5166 341.067 99.783 340.879 100.119C340.691 100.45 340.595 100.819 340.59 101.227V102.912C340.59 103.422 340.684 103.863 340.872 104.235C341.065 104.606 341.336 104.893 341.685 105.094C342.034 105.296 342.448 105.397 342.927 105.397C343.245 105.397 343.536 105.352 343.8 105.262C344.064 105.173 344.29 105.038 344.478 104.859C344.666 104.68 344.81 104.461 344.908 104.201L347.554 104.376C347.419 105.012 347.144 105.567 346.728 106.041C346.316 106.511 345.783 106.878 345.13 107.142C344.48 107.402 343.731 107.532 342.88 107.532ZM353.281 107.498C352.498 107.498 351.789 107.297 351.153 106.894C350.522 106.487 350.02 105.889 349.649 105.101C349.282 104.309 349.098 103.337 349.098 102.187C349.098 101.005 349.288 100.022 349.669 99.239C350.049 98.4512 350.555 97.8625 351.186 97.473C351.822 97.0791 352.518 96.8821 353.275 96.8821C353.852 96.8821 354.333 96.9806 354.718 97.1776C355.108 97.3701 355.421 97.6118 355.659 97.9028C355.9 98.1893 356.084 98.4713 356.209 98.7489H356.296V93.5784H359.15V107.33H356.33V105.679H356.209C356.075 105.965 355.885 106.249 355.638 106.531C355.397 106.809 355.081 107.039 354.692 107.223C354.307 107.407 353.837 107.498 353.281 107.498ZM354.188 105.222C354.649 105.222 355.039 105.097 355.356 104.846C355.679 104.591 355.925 104.235 356.095 103.778C356.27 103.322 356.357 102.787 356.357 102.173C356.357 101.56 356.272 101.027 356.102 100.575C355.932 100.123 355.685 99.774 355.363 99.5278C355.041 99.2816 354.649 99.1585 354.188 99.1585C353.718 99.1585 353.322 99.2861 352.999 99.5412C352.677 99.7964 352.433 100.15 352.268 100.602C352.102 101.054 352.019 101.578 352.019 102.173C352.019 102.773 352.102 103.304 352.268 103.765C352.438 104.221 352.682 104.58 352.999 104.839C353.322 105.094 353.718 105.222 354.188 105.222ZM364.92 93.5784L364.658 103.208H362.2L361.932 93.5784H364.92ZM363.429 107.505C362.986 107.505 362.606 107.348 362.288 107.035C361.97 106.717 361.813 106.337 361.818 105.893C361.813 105.455 361.97 105.079 362.288 104.765C362.606 104.452 362.986 104.295 363.429 104.295C363.855 104.295 364.228 104.452 364.551 104.765C364.873 105.079 365.036 105.455 365.041 105.893C365.036 106.189 364.958 106.46 364.806 106.706C364.658 106.948 364.463 107.142 364.222 107.29C363.98 107.433 363.716 107.505 363.429 107.505Z" fill="black"/>
<rect x="239.473" y="122.33" width="110.636" height="23.4545" rx="2.36364" fill="#061F6F"/>
<path d="M252.235 138.058V129.463H255.383C255.993 129.463 256.498 129.563 256.898 129.765C257.298 129.964 257.597 130.234 257.796 130.575C257.995 130.913 258.094 131.295 258.094 131.721C258.094 132.079 258.028 132.381 257.897 132.627C257.765 132.87 257.589 133.066 257.368 133.215C257.15 133.36 256.909 133.466 256.646 133.534V133.618C256.932 133.632 257.21 133.724 257.481 133.895C257.755 134.062 257.982 134.302 258.161 134.612C258.34 134.923 258.43 135.3 258.43 135.745C258.43 136.185 258.326 136.579 258.119 136.929C257.915 137.276 257.599 137.551 257.171 137.756C256.743 137.957 256.196 138.058 255.53 138.058H252.235ZM253.532 136.946H255.404C256.025 136.946 256.47 136.825 256.738 136.585C257.007 136.344 257.141 136.043 257.141 135.682C257.141 135.411 257.073 135.162 256.936 134.935C256.799 134.709 256.603 134.528 256.348 134.394C256.096 134.26 255.797 134.192 255.45 134.192H253.532V136.946ZM253.532 133.181H255.27C255.561 133.181 255.822 133.125 256.054 133.013C256.289 132.901 256.475 132.745 256.613 132.543C256.752 132.339 256.822 132.098 256.822 131.821C256.822 131.466 256.698 131.168 256.449 130.927C256.2 130.687 255.818 130.566 255.303 130.566H253.532V133.181ZM265.495 129.463H266.796V135.116C266.796 135.717 266.655 136.25 266.372 136.715C266.09 137.176 265.692 137.54 265.18 137.806C264.668 138.069 264.068 138.2 263.38 138.2C262.694 138.2 262.096 138.069 261.584 137.806C261.072 137.54 260.674 137.176 260.392 136.715C260.109 136.25 259.968 135.717 259.968 135.116V129.463H261.265V135.011C261.265 135.4 261.35 135.745 261.521 136.047C261.694 136.35 261.939 136.587 262.255 136.761C262.571 136.932 262.946 137.017 263.38 137.017C263.816 137.017 264.193 136.932 264.509 136.761C264.828 136.587 265.071 136.35 265.239 136.047C265.41 135.745 265.495 135.4 265.495 135.011V129.463ZM268.018 129.463H269.491L271.737 133.37H271.829L274.074 129.463H275.547L272.429 134.684V138.058H271.137V134.684L268.018 129.463ZM279.9 138.058V129.463H282.963C283.632 129.463 284.186 129.584 284.625 129.828C285.064 130.071 285.393 130.404 285.611 130.827C285.83 131.246 285.939 131.719 285.939 132.245C285.939 132.774 285.828 133.25 285.607 133.672C285.389 134.092 285.059 134.425 284.617 134.671C284.177 134.914 283.625 135.036 282.959 135.036H280.852V133.936H282.841C283.264 133.936 283.607 133.864 283.87 133.718C284.133 133.57 284.326 133.369 284.449 133.114C284.572 132.859 284.634 132.57 284.634 132.245C284.634 131.921 284.572 131.632 284.449 131.381C284.326 131.129 284.131 130.932 283.866 130.789C283.603 130.646 283.256 130.575 282.825 130.575H281.196V138.058H279.9ZM287.459 138.058V129.463H290.523C291.189 129.463 291.741 129.577 292.18 129.807C292.622 130.036 292.953 130.354 293.171 130.76C293.389 131.162 293.498 131.628 293.498 132.157C293.498 132.683 293.388 133.146 293.167 133.546C292.948 133.943 292.618 134.253 292.176 134.474C291.737 134.695 291.184 134.805 290.518 134.805H288.198V133.689H290.401C290.821 133.689 291.162 133.629 291.425 133.508C291.691 133.388 291.885 133.213 292.008 132.984C292.131 132.754 292.193 132.479 292.193 132.157C292.193 131.832 292.13 131.551 292.004 131.313C291.881 131.076 291.687 130.894 291.421 130.768C291.158 130.639 290.812 130.575 290.384 130.575H288.756V138.058H287.459ZM291.702 134.18L293.826 138.058H292.348L290.267 134.18H291.702ZM302.542 133.76C302.542 134.678 302.374 135.467 302.039 136.127C301.703 136.785 301.243 137.291 300.658 137.646C300.076 137.999 299.414 138.175 298.673 138.175C297.929 138.175 297.264 137.999 296.679 137.646C296.097 137.291 295.639 136.783 295.303 136.123C294.967 135.463 294.799 134.675 294.799 133.76C294.799 132.843 294.967 132.055 295.303 131.397C295.639 130.737 296.097 130.231 296.679 129.878C297.264 129.523 297.929 129.345 298.673 129.345C299.414 129.345 300.076 129.523 300.658 129.878C301.243 130.231 301.703 130.737 302.039 131.397C302.374 132.055 302.542 132.843 302.542 133.76ZM301.258 133.76C301.258 133.061 301.145 132.472 300.918 131.993C300.694 131.512 300.387 131.148 299.995 130.902C299.606 130.653 299.165 130.529 298.673 130.529C298.178 130.529 297.736 130.653 297.347 130.902C296.958 131.148 296.65 131.512 296.423 131.993C296.2 132.472 296.088 133.061 296.088 133.76C296.088 134.46 296.2 135.05 296.423 135.531C296.65 136.01 296.958 136.373 297.347 136.622C297.736 136.869 298.178 136.992 298.673 136.992C299.165 136.992 299.606 136.869 299.995 136.622C300.387 136.373 300.694 136.01 300.918 135.531C301.145 135.05 301.258 134.46 301.258 133.76ZM307.287 138.058V129.463H310.35C311.019 129.463 311.573 129.584 312.012 129.828C312.452 130.071 312.78 130.404 312.999 130.827C313.217 131.246 313.326 131.719 313.326 132.245C313.326 132.774 313.215 133.25 312.994 133.672C312.776 134.092 312.446 134.425 312.004 134.671C311.565 134.914 311.012 135.036 310.346 135.036H308.239V133.936H310.229C310.651 133.936 310.994 133.864 311.257 133.718C311.52 133.57 311.713 133.369 311.836 133.114C311.959 132.859 312.021 132.57 312.021 132.245C312.021 131.921 311.959 131.632 311.836 131.381C311.713 131.129 311.519 130.932 311.253 130.789C310.99 130.646 310.643 130.575 310.212 130.575H308.584V138.058H307.287ZM314.846 138.058V129.463H316.143V136.941H320.038V138.058H314.846ZM322.682 138.058H321.305L324.398 129.463H325.896L328.989 138.058H327.613L325.183 131.024H325.116L322.682 138.058ZM322.913 134.692H327.378V135.783H322.913V134.692ZM337.168 129.463V138.058H335.976L331.607 131.754H331.527V138.058H330.231V129.463H331.431L335.804 135.775H335.884V129.463H337.168Z" fill="white"/>
<defs>
<linearGradient id="paint0_linear_111_33" x1="395.423" y1="100.385" x2="463.782" y2="123.412" gradientUnits="userSpaceOnUse">
<stop stop-color="#8AD3FF"/>
<stop offset="1" stop-color="#5F9CFF"/>
</linearGradient>
<linearGradient id="paint1_linear_111_33" x1="104.888" y1="81.4597" x2="52.9861" y2="92.792" gradientUnits="userSpaceOnUse">
<stop stop-color="#8AD3FF"/>
<stop offset="1" stop-color="#5F9CFF"/>
</linearGradient>
<linearGradient id="paint2_linear_111_33" x1="254.003" y1="84.1827" x2="254.003" y2="72.9239" gradientUnits="userSpaceOnUse">
<stop stop-color="#FD5900"/>
<stop offset="1" stop-color="#FFDE00"/>
</linearGradient>
<linearGradient id="paint3_linear_111_33" x1="253.997" y1="86.3304" x2="253.997" y2="74.8842" gradientUnits="userSpaceOnUse">
<stop stop-color="#FFE59A"/>
<stop offset="1" stop-color="#FFFFD5"/>
</linearGradient>
</defs>
</svg>
